<?xml version="1.0" encoding="UTF-8"?>
<svg width="15px" height="15px" viewBox="0 0 15 15" version="1.1" xmlns="http://www.w3.org/2000/svg" xmlns:xlink="http://www.w3.org/1999/xlink">
    <!-- Generator: Sketch 52.6 (67491) - http://www.bohemiancoding.com/sketch -->
    <title>like</title>
    <desc>Created with Sketch.</desc>
    <g id="Pages" stroke="none" stroke-width="1" fill="none" fill-rule="evenodd">
        <g id="Search-Result-(search-by-keywords)" transform="translate(-586.000000, -395.000000)" fill="#D75A4A">
            <g id="Group-12" transform="translate(576.000000, 183.000000)">
                <g id="Group-5" transform="translate(0.000000, 64.000000)">
                    <g id="Group-4">
                        <g id="like" transform="translate(10.000000, 148.000000)">
                            <path d="M7.45514911,2.50257246 C8.06056116,1.0295471 9.4435887,0.000307971014 11.0522207,0.000307971014 C13.2191639,0.000307971014 14.779795,1.90326087 14.9759989,4.17115942 C14.9759989,4.17115942 15.081901,4.73413043 14.8487963,5.74766304 C14.53139,7.12798913 13.7852752,8.35432971 12.7793551,9.29025362 L7.45514911,14.1666667 L2.22064487,9.28994565 C1.21472484,8.35432971 0.468609985,7.12768116 0.151203664,5.74735507 C-0.0819009778,4.73382246 0.0240011311,4.17085145 0.0240011311,4.17085145 C0.220205038,1.9029529 1.78083611,0 3.94777926,0 C5.5567113,0 6.84973705,1.0295471 7.45514911,2.50257246 Z" id="Path"></path>
                        </g>
                    </g>
                </g>
            </g>
        </g>
    </g>
</svg>