<?xml version="1.0" encoding="UTF-8"?>
<svg width="15px" height="11px" viewBox="0 0 15 11" version="1.1" xmlns="http://www.w3.org/2000/svg" xmlns:xlink="http://www.w3.org/1999/xlink">
    <!-- Generator: Sketch 52.6 (67491) - http://www.bohemiancoding.com/sketch -->
    <title>left-arrow</title>
    <desc>Created with Sketch.</desc>
    <g id="Pages" stroke="none" stroke-width="1" fill="none" fill-rule="evenodd">
        <g id="Search-Result-(search-by-keywords)" transform="translate(-80.000000, -357.000000)" fill="#6A93B1">
            <g id="Group-15" transform="translate(45.000000, 183.000000)">
                <g id="Group-2" transform="translate(35.000000, 23.000000)">
                    <g id="left-arrow" transform="translate(7.500000, 156.500000) scale(-1, 1) translate(-7.500000, -156.500000) translate(0.000000, 151.000000)">
                        <path d="M14.1568295,4.46145865 L14.1802441,4.46598083 L4.14292919,4.46598083 L7.29829436,1.6739622 C7.45280652,1.53765062 7.5375626,1.35299472 7.5375626,1.15918679 C7.5375626,0.965378855 7.45280652,0.782015015 7.29829436,0.645380421 L6.80731886,0.211681333 C6.65292865,0.0753697523 6.44719698,0 6.22780679,0 C6.00829464,0 5.80244103,0.0748313969 5.64805082,0.211142977 L0.239149557,4.98624747 C0.0841495904,5.1230974 -0.000606488726,5.30538453 3.267239e-06,5.49930014 C-0.000606488726,5.69429245 0.0841495904,5.87668725 0.239149557,6.01332185 L5.64805082,10.788857 C5.80244103,10.9250609 6.00817269,11 6.22780679,11 C6.44719698,11 6.65292865,10.9249533 6.80731886,10.788857 L7.29829436,10.3551579 C7.45280652,10.2190617 7.5375626,10.0373129 7.5375626,9.84350499 C7.5375626,9.64980472 7.45280652,9.47763868 7.29829436,9.34143477 L4.10731945,6.53380382 L14.168049,6.53380382 C14.620122,6.53380382 15,6.18979474 15,5.79087341 L15,5.1774713 C15,4.77854996 14.6089025,4.46145865 14.1568295,4.46145865 Z" id="Path"></path>
                    </g>
                </g>
            </g>
        </g>
    </g>
</svg>