<?xml version="1.0" encoding="UTF-8"?>
<svg width="15px" height="18px" viewBox="0 0 15 18" version="1.1" xmlns="http://www.w3.org/2000/svg" xmlns:xlink="http://www.w3.org/1999/xlink">
    <!-- Generator: Sketch 52.6 (67491) - http://www.bohemiancoding.com/sketch -->
    <title>followers</title>
    <desc>Created with Sketch.</desc>
    <g id="Pages" stroke="none" stroke-width="1" fill="none" fill-rule="evenodd">
        <g id="Search-Result-(search-by-keywords)" transform="translate(-586.000000, -633.000000)" fill="#417AAB">
            <g id="Group-13" transform="translate(576.000000, 444.000000)">
                <g id="Group-11" transform="translate(0.000000, 64.000000)">
                    <g id="Group-10">
                        <g id="followers" transform="translate(9.000000, 125.000000)">
                            <path d="M8.00005378,8.42105263 C10.0928044,8.42105263 11.7894737,6.53595455 11.7894737,4.21055091 C11.7894737,1.88509809 11.2324322,0 8.00005378,0 C4.76767532,0 4.21052632,1.88509809 4.21052632,4.21055091 C4.21052632,6.53595455 5.90719561,8.42105263 8.00005378,8.42105263 Z" id="Path"></path>
                            <path d="M15.1647813,15.2240312 C15.1685813,15.184166 15.1660813,14.9474502 15.1647813,15.2240312 Z" id="Path"></path>
                            <path d="M15.1503524,15.1615612 C15.084294,11.1362139 14.5399324,9.98920848 10.3743056,9.26315789 C10.3743056,9.26315789 9.78792979,9.98475988 8.42120449,9.98475988 C7.05447919,9.98475988 6.46800218,9.26315789 6.46800218,9.26315789 C2.34783159,9.98128899 1.77036484,11.1112822 1.69443566,15.0307919 C1.68820946,15.3508466 1.68532415,15.3676633 1.68421053,15.3305102 C1.68446362,15.4001234 1.68476734,15.5288884 1.68476734,15.7534205 C1.68476734,15.7534205 2.67650371,17.6842105 8.42120449,17.6842105 C14.165804,17.6842105 15.1576416,15.7534205 15.1576416,15.7534205 C15.1576416,15.6091587 15.1577429,15.5088453 15.1578947,15.4406008 C15.1567811,15.4635771 15.1545539,15.4190422 15.1503524,15.1615612 Z" id="Path"></path>
                        </g>
                    </g>
                </g>
            </g>
        </g>
    </g>
</svg>