<?xml version="1.0" encoding="UTF-8"?>
<svg width="80px" height="80px" viewBox="0 0 80 80" version="1.1" xmlns="http://www.w3.org/2000/svg" xmlns:xlink="http://www.w3.org/1999/xlink">
    <!-- Generator: Sketch 52.6 (67491) - http://www.bohemiancoding.com/sketch -->
    <title>maximize</title>
    <desc>Created with Sketch.</desc>
    <g id="Symbols" stroke="none" stroke-width="1" fill="none" fill-rule="evenodd">
        <g id="Desktop-HD" transform="translate(-929.000000, -645.000000)" fill="#5991CA" fill-rule="nonzero">
            <g id="maximize" transform="translate(929.000000, 645.000000)">
                <path d="M76.8969551,0 L53.3594551,0 C51.6455937,0 50.2564103,1.3893335 50.2564103,3.10304486 C50.2564103,4.81675623 51.6455937,6.20608973 53.3594551,6.20608973 L73.7939103,6.20608973 L73.7939103,26.6405449 C73.7939103,28.3542562 75.1830937,29.7435897 76.8969551,29.7435897 C78.6108165,29.7435897 80,28.3542562 80,26.6405449 L80,3.10304486 C80,1.3893335 78.6108165,0 76.8969551,0 Z" id="Shape"></path>
                <path d="M26.6405449,73.7939103 L6.20623977,73.7939103 L6.20623977,53.3594551 C6.20623977,51.6455937 4.81690627,50.2564103 3.1031949,50.2564103 C1.3893335,50.2564103 0,51.6455937 0,53.3594551 L0,76.8969551 C0,78.6108165 1.3893335,80 3.10304486,80 L26.6405449,80 C28.3542562,80 29.7435897,78.6108165 29.7435897,76.8969551 C29.7437398,75.1830937 28.3542562,73.7939103 26.6405449,73.7939103 Z" id="Shape"></path>
                <path d="M79.0033198,0.99679584 C77.6742483,-0.33226528 75.5194642,-0.33226528 74.1903927,0.99679584 L44.0736033,31.1133504 C42.7446963,32.4424115 42.7446963,34.5971788 44.0736033,35.9262399 C44.7380567,36.5906882 45.6091852,36.9230769 46.4801491,36.9230769 C47.3509484,36.9230769 48.2220769,36.5908528 48.8866949,35.9262399 L79.0033198,5.80968536 C80.3322267,4.48062424 80.3322267,2.32585696 79.0033198,0.99679584 Z" id="Shape"></path>
                <path d="M35.92628,44.0737234 C34.5973819,42.7446563 32.4424477,42.7446563 31.1133851,44.0737234 L0.99679695,74.1902476 C-0.33226565,75.5193147 -0.33226565,77.6740915 0.99679695,79.0031586 C1.66124598,79.6679389 2.5323686,80 3.40316212,80 C4.27412019,80 5.14507826,79.6677744 5.80969184,79.0031586 L35.92628,48.8864698 C37.2553426,47.5575673 37.2553426,45.4027904 35.92628,44.0737234 Z" id="Shape"></path>
            </g>
        </g>
    </g>
</svg>