<?xml version="1.0" encoding="UTF-8"?>
<svg width="29px" height="29px" viewBox="0 0 29 29" version="1.1" xmlns="http://www.w3.org/2000/svg" xmlns:xlink="http://www.w3.org/1999/xlink">
    <!-- Generator: Sketch 52.6 (67491) - http://www.bohemiancoding.com/sketch -->
    <title>info-button</title>
    <desc>Created with Sketch.</desc>
    <g id="Pages" stroke="none" stroke-width="1" fill="none" fill-rule="evenodd">
        <g id="Rumour-detail" transform="translate(-389.000000, -1261.000000)" fill="#CCCBCB" fill-rule="nonzero">
            <g id="info-button" transform="translate(389.000000, 1261.000000)">
                <path d="M24.7537392,4.24673366 C19.0911124,-1.41526266 9.90999087,-1.4158931 4.24673366,4.24673366 C-1.4158931,9.90936043 -1.41526266,19.090482 4.24673366,24.7537392 C9.90936043,30.4151051 19.090482,30.4157355 24.7537392,24.7537392 C30.4157355,19.090482 30.4151051,9.90999087 24.7537392,4.24673366 Z M16.3909309,20.8046528 C16.3909309,21.8492946 15.5442478,22.6959777 14.499606,22.6959777 C13.4549642,22.6959777 12.6082811,21.8492946 12.6082811,20.8046528 L12.6082811,13.2393531 C12.6082811,12.1947114 13.4549642,11.3480282 14.499606,11.3480282 C15.5442478,11.3480282 16.3909309,12.1947114 16.3909309,13.2393531 L16.3909309,20.8046528 Z M14.4661926,10.0064484 C13.3767894,10.0064484 12.6505207,9.23478788 12.6732166,8.28219057 C12.6505207,7.28357102 13.3767894,6.5352368 14.488258,6.5352368 C15.6003571,6.5352368 16.3039299,7.28420146 16.3272563,8.28219057 C16.3266258,9.23478788 15.6009875,10.0064484 14.4661926,10.0064484 Z" id="Shape"></path>
            </g>
        </g>
    </g>
</svg>