<?xml version="1.0" encoding="UTF-8"?>
<svg width="52px" height="46px" viewBox="0 0 52 46" version="1.1" xmlns="http://www.w3.org/2000/svg" xmlns:xlink="http://www.w3.org/1999/xlink">
    <!-- Generator: Sketch 52.6 (67491) - http://www.bohemiancoding.com/sketch -->
    <title>arrow-pointing-to-right</title>
    <desc>Created with Sketch.</desc>
    <g id="Pages" stroke="none" stroke-width="1" fill="none" fill-rule="evenodd">
        <g id="Diffusion-detail" transform="translate(-1580.000000, -1092.000000)" fill="#000000">
            <g id="arrow-pointing-to-right" transform="translate(1580.000000, 1092.000000)">
                <path d="M51.2917597,20.8021605 L35.8174402,0.910241771 C34.8733133,-0.303413924 33.3421294,-0.303413924 32.3980025,0.910241771 C31.4536821,2.12414611 31.4536821,4.09195418 32.3980025,5.30585852 L43.7447407,19.8918566 L2.41786242,19.8918566 C1.08262208,19.8918566 0,21.283545 0,22.9999689 C0,24.7161442 1.08262208,26.1080812 2.41786242,26.1080812 L43.7447407,26.1080812 L32.3983893,40.6940793 C31.454069,41.9079837 31.454069,43.8757917 32.3983893,45.0896961 C32.8703561,45.6961509 33.4893289,46 34.1081082,46 C34.7268876,46 35.3456669,45.6961509 35.8178271,45.0896961 L51.2917597,25.1977773 C52.2360801,23.983873 52.2360801,22.0160649 51.2917597,20.8021605 Z" id="Path"></path>
            </g>
        </g>
    </g>
</svg>