<?xml version="1.0" encoding="UTF-8"?>
<svg width="18px" height="13px" viewBox="0 0 18 13" version="1.1" xmlns="http://www.w3.org/2000/svg" xmlns:xlink="http://www.w3.org/1999/xlink">
    <!-- Generator: Sketch 52.6 (67491) - http://www.bohemiancoding.com/sketch -->
    <title>retweet</title>
    <desc>Created with Sketch.</desc>
    <g id="Pages" stroke="none" stroke-width="1" fill="none" fill-rule="evenodd">
        <g id="Search-Result-(search-by-keywords)" transform="translate(-655.000000, -396.000000)" fill="#2A798B" fill-rule="nonzero">
            <g id="Group-12" transform="translate(576.000000, 183.000000)">
                <g id="Group-5" transform="translate(0.000000, 64.000000)">
                    <g id="Group-4">
                        <g id="retweet" transform="translate(79.000000, 149.000000)">
                            <path d="M6.25781177,0.692829039 C6.25781177,0.310157325 6.5725692,-4.54747351e-13 6.96093482,-4.54747351e-13 L13.3856335,-4.41535006e-13 C14.9364867,-4.41535006e-13 16,1.24329174 16,2.77127229 L16,8.41770981 C16,8.80038152 15.3649031,9.11052422 14.9765375,9.11052422 C14.5881719,9.11052422 14.2734145,8.80038152 14.2734145,8.41770981 L14.2734145,2.77127229 C14.2734145,2.007282 14.1609915,1.59567178 13.3856335,1.59567178 L6.96093482,1.59567178 C6.5725692,1.59567178 6.25781177,1.07550075 6.25781177,0.692829039 Z M17.7906776,9.10227 C17.5142349,8.83366907 17.0690152,8.83664602 16.7962804,9.10903575 L15.2319689,10.671657 C15.1657765,10.7371496 15.0782981,10.7732788 14.9854639,10.7732788 C14.8924923,10.7732788 14.805014,10.737285 14.7388215,10.6719277 L13.1540481,9.10632944 C12.8798026,8.83529289 12.4345829,8.83475159 12.1596508,9.10497631 C11.8847187,9.37520098 11.8841694,9.81389326 12.1584149,10.0847945 L13.7431883,11.650528 C14.0751118,11.978397 14.5075678,12.5867828 14.9765454,12.5867828 C15.4459349,12.5865122 16.0784631,11.9812387 16.4123092,11.650528 L17.7974067,10.0820882 C18.0701416,9.80969847 18.0671203,9.3710062 17.7906776,9.10227 Z M11.8935482,10.8079195 L5.14472387,10.8079195 C4.28645354,10.8079195 4,10.4157924 4,9.65166679 L4,3.62273125 C4,3.24005953 3.52852897,2.90983518 3.09863374,2.90983518 C2.66873852,2.90983518 2.07316594,3.24005953 2.07316594,3.62273125 L2.07316594,9.65166679 C2.07316594,11.1797826 2.54977644,12.46596 4.26646907,12.46596 L11.8935482,12.46596 C12.3234434,12.46596 12.6718592,11.8834057 12.6718592,11.500734 C12.6718592,11.1180623 12.3234434,10.8079195 11.8935482,10.8079195 Z M3.01451942,1.38564346 L3.01479406,1.38564346 C3.10749095,1.38564346 3.19496934,1.42163731 3.2611618,1.48699462 L4.84593522,3.05272815 C4.98326394,3.18844942 5.16357654,3.25624239 5.34375182,3.25624239 C5.52337778,3.25624239 5.70300375,3.18885538 5.84033247,3.05394598 C6.11526455,2.78385661 6.1158139,2.34516437 5.84156842,2.07426309 L4.25679499,0.508529596 C3.92459681,0.180389928 3.483497,-0.00187979396 3.01355811,1.46204623e-05 C2.54416856,0.000420568143 2.10279404,0.181472451 1.76894791,0.512183083 L0.202576555,2.0769694 C-0.0701582992,2.34935912 -0.0671370498,2.78791609 0.209442974,3.05665229 C0.485748357,3.32538852 0.930968083,3.32241157 1.2037029,3.05002185 L2.76815168,1.48740058 C2.83420682,1.42190796 2.9216852,1.38577876 3.01451942,1.38564346 Z" id="Shape"></path>
                        </g>
                    </g>
                </g>
            </g>
        </g>
    </g>
</svg>