<?xml version="1.0" encoding="UTF-8"?>
<svg width="44px" height="46px" viewBox="0 0 44 46" version="1.1" xmlns="http://www.w3.org/2000/svg" xmlns:xlink="http://www.w3.org/1999/xlink">
    <!-- Generator: Sketch 52.1 (67048) - http://www.bohemiancoding.com/sketch -->
    <title>search</title>
    <desc>Created with Sketch.</desc>
    <g id="Pages" stroke="none" stroke-width="1" fill="none" fill-rule="evenodd">
        <g id="HomePage" transform="translate(-1568.000000, -231.000000)" fill="#979797" fill-rule="nonzero">
            <g id="search-bar" transform="translate(291.000000, 221.000000)">
                <g id="search" transform="translate(1277.000000, 10.000000)">
                    <path d="M43.3310088,41.8987115 L32.4842562,30.5121652 C35.2731469,27.1658884 36.8011965,22.9555875 36.8011965,18.5724818 C36.8011965,8.33177685 28.5465281,0 18.4005983,0 C8.25466839,0 0,8.33177685 0,18.5724818 C0,28.8131868 8.25466839,37.1449637 18.4005983,37.1449637 C22.2095221,37.1449637 25.8392401,35.9853948 28.942541,33.784152 L39.8716964,45.2571007 C40.3285112,45.7359478 40.9429312,46 41.6013526,46 C42.2245729,46 42.8157921,45.7601727 43.2646067,45.3241232 C44.2182377,44.3979216 44.2486387,42.8620581 43.3310088,41.8987115 Z M18.4005983,4.84499526 C25.9000421,4.84499526 32.0010405,11.0029842 32.0010405,18.5724818 C32.0010405,26.1419794 25.9000421,32.2999684 18.4005983,32.2999684 C10.9011544,32.2999684 4.80015607,26.1419794 4.80015607,18.5724818 C4.80015607,11.0029842 10.9011544,4.84499526 18.4005983,4.84499526 Z" id="Shape"></path>
                </g>
            </g>
        </g>
    </g>
</svg>