<?xml version="1.0" encoding="UTF-8"?>
<svg width="17px" height="20px" viewBox="0 0 17 20" version="1.1" xmlns="http://www.w3.org/2000/svg" xmlns:xlink="http://www.w3.org/1999/xlink">
    <!-- Generator: Sketch 52.6 (67491) - http://www.bohemiancoding.com/sketch -->
    <title>tweets</title>
    <desc>Created with Sketch.</desc>
    <g id="Pages" stroke="none" stroke-width="1" fill="none" fill-rule="evenodd">
        <g id="Search-Result-(search-by-keywords)" transform="translate(-670.000000, -632.000000)" fill="#729E97">
            <g id="Group-13" transform="translate(576.000000, 444.000000)">
                <g id="Group-11" transform="translate(0.000000, 64.000000)">
                    <g id="Group-10">
                        <g id="tweets" transform="translate(94.000000, 124.000000)">
                            <path d="M15.6677632,0 L3.33223684,0 C2.59210526,0 2,0.618302387 2,1.3535809 L2,9.14084881 C2,9.8928382 2.60855263,10.4944297 3.33223684,10.4944297 L11.8355263,10.4944297 L13.7598684,12.466313 C13.8421053,12.5498674 13.9407895,12.6 14.0559211,12.6 C14.2861842,12.6 14.4835526,12.4161804 14.4835526,12.1655172 L14.4835526,10.4944297 L15.6677632,10.4944297 C16.4078947,10.4944297 17,9.87612732 17,9.14084881 L17,1.3535809 C17,0.601591512 16.3914474,0 15.6677632,0 Z M5.22368421,6.70106101 C4.54934211,6.70106101 3.99013158,6.13289125 3.99013158,5.44774536 C3.99013158,4.76259947 4.54934211,4.19442971 5.22368421,4.19442971 C5.89802632,4.19442971 6.45723684,4.76259947 6.45723684,5.44774536 C6.45723684,6.13289125 5.91447368,6.70106101 5.22368421,6.70106101 Z M9.54934211,6.70106101 C8.875,6.70106101 8.31578947,6.13289125 8.31578947,5.44774536 C8.31578947,4.76259947 8.875,4.19442971 9.54934211,4.19442971 C10.2236842,4.19442971 10.7828947,4.76259947 10.7828947,5.44774536 C10.7828947,6.13289125 10.2236842,6.70106101 9.54934211,6.70106101 Z M13.8585526,6.70106101 C13.1842105,6.70106101 12.625,6.13289125 12.625,5.44774536 C12.625,4.76259947 13.1842105,4.19442971 13.8585526,4.19442971 C14.5328947,4.19442971 15.0921053,4.76259947 15.0921053,5.44774536 C15.0921053,6.13289125 14.5328947,6.70106101 13.8585526,6.70106101 Z" id="Shape" fill-rule="nonzero"></path>
                            <path d="M9.66659385,11.3445715 C9.4661063,11.1148572 9.14953791,11 8.71688869,11 C7.26038334,11 5.09862201,11 2.23160473,11 L0.876414182,11 C0.397139477,11 0.00049834256,11.3911469 0.00049834256,11.8637827 L0.00049834256,16.8509054 C-0.0160283714,17.3561368 0.380612763,17.7472837 0.876414182,17.7472837 L1.65316974,17.7472837 L1.65316974,18.8229376 C1.65316974,18.9696177 1.78538345,19.1 1.93412387,19.1 C2.01675744,19.1 2.0828643,19.0674044 2.13244444,19.0185111 L3.40500142,17.7635815 L9.02408416,17.7635815 C9.50335887,17.7635815 9.9,17.3724346 9.9,16.8997988 L9.9,15.661167 C9.94103385,14.3641632 9.95438575,13.3061697 9.94005572,12.4871866 C9.93181971,12.0164861 9.94005572,11.5636587 9.66659385,11.3445715 Z" id="Path"></path>
                        </g>
                    </g>
                </g>
            </g>
        </g>
    </g>
</svg>