<?xml version="1.0" encoding="UTF-8"?>
<svg width="100px" height="100px" viewBox="0 0 100 100" version="1.1" xmlns="http://www.w3.org/2000/svg" xmlns:xlink="http://www.w3.org/1999/xlink">
    <!-- Generator: Sketch 52.6 (67491) - http://www.bohemiancoding.com/sketch -->
    <title>exclamation-mark</title>
    <desc>Created with Sketch.</desc>
    <g id="Symbols" stroke="none" stroke-width="1" fill="none" fill-rule="evenodd">
        <g id="Desktop-HD" transform="translate(-1158.000000, -462.000000)" fill="#8855CF" fill-rule="nonzero">
            <g id="exclamation-mark" transform="translate(1158.000000, 462.000000)">
                <path d="M49.8351916,0 C77.3595819,0 99.6703833,22.3135889 99.6703833,49.8351916 C99.6703833,77.3630662 77.3599303,99.6703833 49.8351916,99.6703833 C22.3135889,99.6703833 0,77.3599303 0,49.8351916 C0,22.3135889 22.3135889,0 49.8351916,0 Z M49.8383275,21.8557491 C46.2689895,21.8557491 43.5682927,23.7184669 43.5682927,26.7271777 L43.5682927,54.3233449 C43.5682927,57.3351916 46.2686411,59.1916376 49.8383275,59.1916376 C53.3205575,59.1916376 56.1083624,57.2574913 56.1083624,54.3233449 L56.1083624,26.7271777 C56.1080139,23.7898955 53.3205575,21.8557491 49.8383275,21.8557491 Z M49.8383275,65.4087108 C46.4090592,65.4087108 43.6181185,68.1996516 43.6181185,71.6317073 C43.6181185,75.0578397 46.4090592,77.8487805 49.8383275,77.8487805 C53.2675958,77.8487805 56.0554007,75.0578397 56.0554007,71.6317073 C56.0550523,68.1993031 53.2675958,65.4087108 49.8383275,65.4087108 Z" id="Shape"></path>
            </g>
        </g>
    </g>
</svg>